<mxfile host="" modified="2020-06-03T13:17:11.730Z" agent="5.0 (Windows NT 10.0; Win64; x64) AppleWebKit/537.36 (KHTML, like Gecko) Code/1.45.1 Chrome/78.0.3904.130 Electron/7.2.4 Safari/537.36" etag="VDmspBY1ygc64x8Q2_Mn" version="13.1.3">
    <diagram id="IE2jtZtF_CsHUWJJWUjt" name="Page-1">
        <mxGraphModel dx="854" dy="560" grid="1" gridSize="10" guides="1" tooltips="1" connect="1" arrows="1" fold="1" page="1" pageScale="1" pageWidth="827" pageHeight="1169" background="#ffffff" math="0" shadow="0">
            <root>
                <mxCell id="0"/>
                <mxCell id="1" parent="0"/>
                <mxCell id="4" value="View(React Components)" style="rounded=1;whiteSpace=wrap;html=1;" parent="1" vertex="1">
                    <mxGeometry x="320" y="40" width="200" height="60" as="geometry"/>
                </mxCell>
                <mxCell id="6" value="dispath" style="rounded=1;whiteSpace=wrap;html=1;shadow=0;glass=0;comic=0;gradientColor=none;fillColor=#ffffff;" parent="1" vertex="1">
                    <mxGeometry x="640" y="210" width="120" height="60" as="geometry"/>
                </mxCell>
                <mxCell id="7" value="reducer" style="rounded=1;whiteSpace=wrap;html=1;" parent="1" vertex="1">
                    <mxGeometry x="320" y="480" width="200" height="60" as="geometry"/>
                </mxCell>
                <mxCell id="8" value="state" style="rounded=1;whiteSpace=wrap;html=1;" parent="1" vertex="1">
                    <mxGeometry x="80" y="380" width="120" height="60" as="geometry"/>
                </mxCell>
                <mxCell id="9" value="subscribe" style="rounded=1;whiteSpace=wrap;html=1;shadow=0;glass=0;comic=0;fillColor=#ffffff;gradientColor=none;" parent="1" vertex="1">
                    <mxGeometry x="80" y="200" width="120" height="60" as="geometry"/>
                </mxCell>
                <mxCell id="11" value="action" style="rounded=1;whiteSpace=wrap;html=1;shadow=0;glass=0;comic=0;fillColor=#ffffff;gradientColor=none;" parent="1" vertex="1">
                    <mxGeometry x="640" y="383" width="120" height="60" as="geometry"/>
                </mxCell>
                <mxCell id="12" value="" style="endArrow=classic;html=1;exitX=1;exitY=0.5;exitDx=0;exitDy=0;entryX=0.5;entryY=0;entryDx=0;entryDy=0;" parent="1" source="4" target="6" edge="1">
                    <mxGeometry width="50" height="50" relative="1" as="geometry">
                        <mxPoint x="580" y="60" as="sourcePoint"/>
                        <mxPoint x="690" y="200" as="targetPoint"/>
                    </mxGeometry>
                </mxCell>
                <mxCell id="16" value="" style="endArrow=classic;html=1;exitX=0.5;exitY=1;exitDx=0;exitDy=0;entryX=1;entryY=0.5;entryDx=0;entryDy=0;" parent="1" source="11" target="7" edge="1">
                    <mxGeometry width="50" height="50" relative="1" as="geometry">
                        <mxPoint x="480" y="470" as="sourcePoint"/>
                        <mxPoint x="530" y="420" as="targetPoint"/>
                    </mxGeometry>
                </mxCell>
                <mxCell id="17" value="" style="endArrow=classic;html=1;entryX=0.5;entryY=1;entryDx=0;entryDy=0;exitX=0;exitY=0.5;exitDx=0;exitDy=0;" parent="1" source="7" target="8" edge="1">
                    <mxGeometry width="50" height="50" relative="1" as="geometry">
                        <mxPoint x="250" y="500" as="sourcePoint"/>
                        <mxPoint x="300" y="450" as="targetPoint"/>
                    </mxGeometry>
                </mxCell>
                <mxCell id="18" value="" style="endArrow=classic;html=1;exitX=0.5;exitY=0;exitDx=0;exitDy=0;" parent="1" source="8" target="9" edge="1">
                    <mxGeometry width="50" height="50" relative="1" as="geometry">
                        <mxPoint x="200" y="340" as="sourcePoint"/>
                        <mxPoint x="250" y="290" as="targetPoint"/>
                    </mxGeometry>
                </mxCell>
                <mxCell id="24" value="store(createStore)" style="shape=cylinder;whiteSpace=wrap;html=1;boundedLbl=1;backgroundOutline=1;shadow=0;glass=0;comic=0;fillColor=#ffffff;gradientColor=none;" parent="1" vertex="1">
                    <mxGeometry x="390" y="333" width="60" height="80" as="geometry"/>
                </mxCell>
                <mxCell id="32" value="getState()" style="rounded=1;whiteSpace=wrap;html=1;shadow=0;glass=0;comic=0;fillColor=#ffffff;gradientColor=none;" parent="1" vertex="1">
                    <mxGeometry x="360" y="200" width="120" height="60" as="geometry"/>
                </mxCell>
                <mxCell id="36" value="" style="endArrow=classic;html=1;dashed=1;entryX=-0.008;entryY=1.033;entryDx=0;entryDy=0;entryPerimeter=0;exitX=1;exitY=0.3;exitDx=0;exitDy=0;" parent="1" source="24" target="6" edge="1">
                    <mxGeometry width="50" height="50" relative="1" as="geometry">
                        <mxPoint x="500" y="370" as="sourcePoint"/>
                        <mxPoint x="620" y="270" as="targetPoint"/>
                    </mxGeometry>
                </mxCell>
                <mxCell id="37" value="" style="endArrow=classic;html=1;dashed=1;entryX=0.942;entryY=1;entryDx=0;entryDy=0;entryPerimeter=0;exitX=0.033;exitY=0.213;exitDx=0;exitDy=0;exitPerimeter=0;" parent="1" source="24" target="9" edge="1">
                    <mxGeometry width="50" height="50" relative="1" as="geometry">
                        <mxPoint x="160" y="352" as="sourcePoint"/>
                        <mxPoint x="289.03999999999996" y="259.98" as="targetPoint"/>
                    </mxGeometry>
                </mxCell>
                <mxCell id="38" value="" style="endArrow=classic;html=1;dashed=1;entryX=0.5;entryY=1;entryDx=0;entryDy=0;" parent="1" source="24" target="32" edge="1">
                    <mxGeometry width="50" height="50" relative="1" as="geometry">
                        <mxPoint x="335.5" y="306" as="sourcePoint"/>
                        <mxPoint x="464.53999999999996" y="213.98000000000002" as="targetPoint"/>
                    </mxGeometry>
                </mxCell>
                <mxCell id="42" value="调用 dispath 触发更新" style="text;html=1;resizable=0;points=[];autosize=1;align=left;verticalAlign=top;spacingTop=-4;" parent="1" vertex="1">
                    <mxGeometry x="600" y="110" width="130" height="20" as="geometry"/>
                </mxCell>
                <mxCell id="47" value="action.type, &lt;br&gt;区分reducer 如何处理 state" style="text;html=1;resizable=0;points=[];autosize=1;align=left;verticalAlign=top;spacingTop=-4;" parent="1" vertex="1">
                    <mxGeometry x="580" y="495" width="160" height="30" as="geometry"/>
                </mxCell>
                <mxCell id="43" value="传递 action,&amp;nbsp;&lt;br&gt;描述了当前操作" style="text;html=1;resizable=0;points=[];autosize=1;align=left;verticalAlign=top;spacingTop=-4;" parent="1" vertex="1">
                    <mxGeometry x="707" y="290" width="100" height="30" as="geometry"/>
                </mxCell>
                <mxCell id="48" value="" style="endArrow=classic;html=1;exitX=0.5;exitY=1;exitDx=0;exitDy=0;entryX=0.5;entryY=0;entryDx=0;entryDy=0;" parent="1" source="6" target="11" edge="1">
                    <mxGeometry width="50" height="50" relative="1" as="geometry">
                        <mxPoint x="700" y="260" as="sourcePoint"/>
                        <mxPoint x="700" y="380" as="targetPoint"/>
                    </mxGeometry>
                </mxCell>
                <mxCell id="49" value="传入 current state，经过处理。&lt;br&gt;返回一个新的 state" style="text;html=1;resizable=0;points=[];autosize=1;align=left;verticalAlign=top;spacingTop=-4;direction=west;" parent="1" vertex="1">
                    <mxGeometry x="120" y="500" width="180" height="30" as="geometry"/>
                </mxCell>
                <mxCell id="50" value="当 state 变更，&lt;br&gt;执行订阅" style="text;html=1;resizable=0;points=[];autosize=1;align=left;verticalAlign=top;spacingTop=-4;" parent="1" vertex="1">
                    <mxGeometry x="43" y="318" width="100" height="30" as="geometry"/>
                </mxCell>
                <mxCell id="51" value="" style="endArrow=classic;html=1;exitX=0.5;exitY=0;exitDx=0;exitDy=0;entryX=0;entryY=0.5;entryDx=0;entryDy=0;" parent="1" source="9" target="4" edge="1">
                    <mxGeometry width="50" height="50" relative="1" as="geometry">
                        <mxPoint x="130" y="190" as="sourcePoint"/>
                        <mxPoint x="180" y="140" as="targetPoint"/>
                    </mxGeometry>
                </mxCell>
                <mxCell id="54" value="执行订阅回调，&lt;br&gt;调用 forceUpdate，更新 view" style="text;html=1;resizable=0;points=[];autosize=1;align=left;verticalAlign=top;spacingTop=-4;" parent="1" vertex="1">
                    <mxGeometry x="100" y="85" width="170" height="30" as="geometry"/>
                </mxCell>
            </root>
        </mxGraphModel>
    </diagram>
</mxfile>
